<?xml version="1.0" standalone="no"?>
<!DOCTYPE svg PUBLIC "-//W3C//DTD SVG 20010904//EN"
 "http://www.w3.org/TR/2001/REC-SVG-20010904/DTD/svg10.dtd">
<svg version="1.0" xmlns="http://www.w3.org/2000/svg"
 width="95.000000pt" height="75.000000pt" viewBox="0 0 95.000000 75.000000"
 preserveAspectRatio="xMidYMid meet">
<metadata>
Created by potrace 1.10, written by Peter Selinger 2001-2011
</metadata>
<g transform="translate(0.000000,75.000000) scale(0.100000,-0.100000)"
fill="#000000" stroke="none">
<path d="M130 370 l0 -360 360 0 360 0 0 360 0 360 -360 0 -360 0 0 -360z
m116 321 c-16 -3 -31 -12 -34 -18 -3 -10 27 -13 129 -13 114 0 139 -3 176 -21
99 -48 96 -167 -6 -236 l-31 -21 34 -12 c51 -17 113 -86 159 -179 24 -48 50
-87 62 -92 15 -6 10 -8 -22 -8 -32 -1 -43 3 -48 18 -14 44 -86 141 -130 174
-59 46 -140 76 -182 70 l-33 -5 0 -88 c0 -114 8 -150 34 -160 14 -6 -5 -9 -61
-9 -45 -1 -85 -5 -88 -11 -3 -5 3 -10 14 -10 11 0 26 -6 34 -14 11 -11 17 -12
26 -3 6 6 11 7 11 1 0 -5 4 -3 9 5 8 12 12 12 26 -2 21 -22 31 -22 14 0 -13
15 -11 16 14 9 18 -4 26 -3 23 3 -4 5 -2 12 3 16 6 3 2 19 -9 38 -25 42 -26
137 -2 137 23 -1 52 -24 52 -41 0 -12 2 -12 9 0 7 11 10 9 16 -8 4 -14 12 -20
21 -17 8 3 13 2 10 -3 -3 -4 10 -23 29 -41 19 -19 35 -40 35 -47 0 -7 4 -12 9
-11 4 2 17 -8 28 -21 15 -19 22 -21 28 -11 5 7 4 11 -1 7 -5 -3 -18 13 -29 35
-27 56 -108 132 -172 162 -29 14 -53 28 -53 30 0 9 94 -25 126 -45 35 -21 84
-80 117 -139 10 -18 21 -29 25 -25 4 4 1 10 -5 12 -20 7 -15 22 7 20 11 -1 20
-6 20 -13 0 -6 9 -19 20 -29 11 -10 17 -22 14 -26 -3 -5 2 -6 10 -3 9 3 14 9
11 14 -2 4 6 6 20 5 13 -2 26 3 29 10 5 14 67 48 74 41 2 -3 1 -21 -2 -39 -7
-38 -39 -55 -63 -35 -9 8 -13 7 -13 -2 0 -10 -3 -10 -15 0 -8 7 -15 8 -15 4 0
-11 -135 -12 -146 -2 -4 4 -11 5 -17 1 -16 -10 -280 -10 -301 0 -13 6 -16 6
-11 -2 4 -8 -3 -10 -26 -6 -19 3 -36 10 -39 15 -3 4 -5 146 -4 315 1 250 4
309 15 317 10 6 7 7 -11 3 -19 -5 -22 -4 -10 4 8 6 38 10 65 10 40 -1 44 -3
21 -8z m569 -20 c7 -32 3 -471 -3 -451 -3 9 -7 9 -13 -1 -6 -9 -7 -2 -3 19 4
17 3 32 -2 32 -5 0 -15 14 -22 30 -8 17 -18 28 -22 25 -5 -3 -11 4 -15 15 -4
11 -10 18 -15 15 -4 -3 -10 1 -13 9 -3 7 -19 16 -37 19 -19 4 -29 11 -24 18 4
8 0 8 -15 0 -12 -7 -26 -9 -31 -6 -5 3 -11 2 -14 -3 -3 -4 15 -13 39 -20 48
-13 108 -60 129 -101 18 -34 40 -135 34 -152 -3 -8 -11 6 -18 31 -29 107 -93
188 -176 220 -27 10 -43 19 -36 20 7 0 10 5 7 10 -3 6 -1 10 5 10 6 0 8 5 4
12 -5 8 -2 9 12 4 10 -4 15 -4 12 0 -4 3 -1 19 7 35 31 59 7 160 -42 185 -13
6 -20 14 -15 19 4 5 1 5 -6 1 -8 -5 -21 -1 -30 8 -12 10 -44 16 -102 19 -47 1
24 4 157 5 l241 2 7 -29z m-121 -423 c-3 -4 -1 -8 4 -8 16 0 24 -32 11 -44 -9
-8 -10 -7 -4 3 4 7 4 16 -1 20 -5 3 -17 19 -27 34 -18 27 -18 28 2 15 11 -6
17 -16 15 -20z"/>
<path d="M191 663 c-1 -6 3 -14 9 -18 6 -3 6 -15 0 -30 -7 -18 -6 -23 3 -19 9
3 11 -44 7 -206 -3 -135 -1 -212 5 -214 6 -3 4 -9 -4 -14 -8 -6 -16 -24 -17
-41 -2 -26 0 -29 19 -22 12 5 25 19 28 32 4 13 7 121 8 240 1 216 -7 279 -34
279 -7 0 -16 6 -18 13 -4 9 -6 9 -6 0z"/>
<path d="M328 624 c-5 -4 -8 -58 -8 -121 l0 -113 39 0 c93 0 141 45 141 134 0
69 -30 98 -106 104 -32 2 -62 0 -66 -4z m105 -31 c-4 -11 -3 -14 5 -9 7 4 14
-3 18 -19 3 -13 10 -23 14 -20 4 2 7 -9 6 -25 -1 -27 -16 -45 -16 -19 0 5 -5
7 -11 3 -8 -4 -8 -9 0 -17 14 -14 14 -30 0 -22 -6 4 -9 0 -7 -11 2 -10 -1 -19
-7 -19 -5 0 -15 -3 -20 -7 -6 -3 -23 -4 -38 -1 l-28 5 3 76 3 76 40 12 c22 7
41 13 42 13 1 1 -1 -6 -4 -16z"/>
<path d="M944 300 c0 -74 1 -105 3 -67 2 37 2 97 0 135 -2 37 -3 6 -3 -68z"/>
</g>
</svg>
